<svg width="32" height="32" viewBox="0 0 32 32" fill="none" xmlns="http://www.w3.org/2000/svg">
<g clip-path="url(#clip0_26_10568)">
<path fill-rule="evenodd" clip-rule="evenodd" d="M15.793 8.79297C17.4498 8.79297 18.793 7.44982 18.793 5.79297H19.793C19.793 7.44982 21.1361 8.79297 22.793 8.79297V9.79297H22.7917C21.1354 9.79367 19.793 11.1365 19.793 12.793H18.793C18.793 11.1365 17.4505 9.79367 15.7943 9.79297H15.793V8.79297ZM17.731 9.29297C18.3866 9.65675 18.9292 10.1994 19.293 10.855C19.6568 10.1994 20.1994 9.65675 20.855 9.29297C20.1994 8.92919 19.6568 8.38656 19.293 7.73097C18.9292 8.38656 18.3866 8.92919 17.731 9.29297ZM24.293 12.793C24.293 13.8975 25.1884 14.793 26.293 14.793V15.793C25.1884 15.793 24.293 16.6884 24.293 17.793H23.293C23.293 16.6884 22.3975 15.793 21.293 15.793V14.793C22.3975 14.793 23.293 13.8975 23.293 12.793H24.293ZM22.9519 15.293C23.2851 15.5145 23.5714 15.8009 23.793 16.1341C24.0145 15.8009 24.3009 15.5145 24.6341 15.293C24.3009 15.0714 24.0145 14.7851 23.793 14.4519C23.5714 14.7851 23.2851 15.0714 22.9519 15.293ZM26.293 5.79297C26.293 6.6214 26.9645 7.29297 27.793 7.29297V8.29297C26.9645 8.29297 26.293 8.96454 26.293 9.79297H25.293C25.293 8.96454 24.6214 8.29297 23.793 8.29297V7.29297C24.6214 7.29297 25.293 6.6214 25.293 5.79297H26.293ZM25.793 8.29273C25.9351 8.10351 26.1035 7.93513 26.2927 7.79297C26.1035 7.65081 25.9351 7.48242 25.793 7.29321C25.6508 7.48242 25.4824 7.65081 25.2932 7.79297C25.4824 7.93513 25.6508 8.10351 25.793 8.29273Z" fill="white"/>
<g clip-path="url(#clip1_26_10568)">
<path fill-rule="evenodd" clip-rule="evenodd" d="M11.8799 10.2689C12.2612 9.59601 13.2293 9.59207 13.616 10.2619L20.2418 21.7381C20.6285 22.4079 20.141 23.2443 19.3676 23.238L10.5167 23.1661L5.64507 25.9788C5.03239 26.3325 4.25618 25.9556 4.15529 25.2554L3.54093 20.9913C3.48262 20.5865 3.67659 20.1871 4.03071 19.9826L7.51675 17.97L11.8799 10.2689ZM19.3758 22.2381L12.75 10.7619L8.25257 18.6998L4.53071 20.8487L5.14507 25.1128L10.2526 22.1639L19.3758 22.2381Z" fill="white"/>
</g>
</g>
<defs>
<clipPath id="clip0_26_10568">
<rect width="32" height="32" fill="white"/>
</clipPath>
<clipPath id="clip1_26_10568">
<rect width="24" height="24" fill="white" transform="translate(14.3926 3.60791) rotate(60)"/>
</clipPath>
</defs>
</svg>
