<svg width="16" height="16" viewBox="0 0 16 16" fill="none" xmlns="http://www.w3.org/2000/svg">
<circle cx="8" cy="8" r="7" fill="white"/>
<path d="M7.29289 8L5.14648 5.85359L5.85359 5.14648L8 7.29289L10.1465 5.14641L10.8536 5.85352L8.70711 8L10.8536 10.1465L10.1465 10.8536L8 8.70711L5.85359 10.8535L5.14648 10.1464L7.29289 8Z" fill="#008075"/>
<path d="M7.29289 8L5.14648 5.85359L5.85359 5.14648L8 7.29289L10.1465 5.14641L10.8536 5.85352L8.70711 8L10.8536 10.1465L10.1465 10.8536L8 8.70711L5.85359 10.8535L5.14648 10.1464L7.29289 8Z" fill="black" fill-opacity="0.2"/>
<path fill-rule="evenodd" clip-rule="evenodd" d="M8 15C11.866 15 15 11.866 15 8C15 4.13401 11.866 1 8 1C4.13401 1 1 4.13401 1 8C1 11.866 4.13401 15 8 15ZM8 14C11.3137 14 14 11.3137 14 8C14 4.68629 11.3137 2 8 2C4.68629 2 2 4.68629 2 8C2 11.3137 4.68629 14 8 14Z" fill="#008075"/>
<path fill-rule="evenodd" clip-rule="evenodd" d="M8 15C11.866 15 15 11.866 15 8C15 4.13401 11.866 1 8 1C4.13401 1 1 4.13401 1 8C1 11.866 4.13401 15 8 15ZM8 14C11.3137 14 14 11.3137 14 8C14 4.68629 11.3137 2 8 2C4.68629 2 2 4.68629 2 8C2 11.3137 4.68629 14 8 14Z" fill="black" fill-opacity="0.2"/>
</svg>
